<svg width="24" height="24" viewBox="0 0 24 24" fill="none" xmlns="http://www.w3.org/2000/svg">
<path fill-rule="evenodd" clip-rule="evenodd" d="M6.587 22.912C6.979 23.304 7.45 23.5 8 23.5H20C20.5493 23.5007 21.02 23.305 21.412 22.913C21.804 22.521 22 22.05 22 21.5V12.5C22.0007 12.1833 21.93 11.8833 21.788 11.6C21.646 11.3167 21.45 11.0833 21.2 10.9L15.2 6.4C14.85 6.13333 14.45 6 14 6C13.55 6 13.15 6.13333 12.8 6.4L6.8 10.9C6.55067 11.0833 6.355 11.3167 6.213 11.6C6.071 11.8833 6 12.1833 6 12.5V21.5C5.99934 22.0493 6.195 22.52 6.587 22.912ZM17.5042 16.5002C16.5397 18.1753 14.0042 20.0002 14.0042 20.0002C14.0042 20.0002 11.4687 18.1753 10.5042 16.5002C10.4467 16.4003 10.3913 16.3131 10.3391 16.2311C10.1938 16.0025 10.0739 15.8139 10.0042 15.5002C9.91947 15.1189 9.91947 14.8814 10.0042 14.5002C10.0989 14.0739 10.1954 13.8089 10.5042 13.5002C10.8129 13.1914 11.078 13.0949 11.5042 13.0002C11.8854 12.9154 12.1253 12.9055 12.5042 13.0002C13.3079 13.2011 14.0042 14.5002 14.0042 14.5002C14.0042 14.5002 14.7005 13.2011 15.5042 13.0002C15.8831 12.9055 16.123 12.9154 16.5042 13.0002C16.9304 13.0949 17.1955 13.1914 17.5042 13.5002C17.8129 13.8089 17.9095 14.0739 18.0042 14.5002C18.0889 14.8814 18.0889 15.1189 18.0042 15.5002C17.9345 15.8139 17.8145 16.0025 17.6692 16.2311C17.6171 16.3131 17.5617 16.4003 17.5042 16.5002Z" fill="#ff6a83"/>
</svg>
