<svg width="24" height="24" viewBox="0 0 24 24" fill="none" xmlns="http://www.w3.org/2000/svg">
<path d="M12 13C10.9 13 9.95834 12.6083 9.175 11.825C8.39167 11.0417 8 10.1 8 9V5.5C8 5.08334 8.146 4.729 8.438 4.437C8.73 4.145 9.084 3.99934 9.5 4C9.75 4 9.98767 4.05834 10.213 4.175C10.4383 4.29167 10.6173 4.45834 10.75 4.675C10.8833 4.45834 11.0623 4.29167 11.287 4.175C11.5117 4.05834 11.7493 4 12 4C12.25 4 12.4877 4.05834 12.713 4.175C12.9383 4.29167 13.1173 4.45834 13.25 4.675C13.3833 4.45834 13.5623 4.29167 13.787 4.175C14.0117 4.05834 14.2493 4 14.5 4C14.9167 4 15.271 4.146 15.563 4.438C15.855 4.73 16.0007 5.084 16 5.5V9C16 10.1 15.6083 11.0417 14.825 11.825C14.0417 12.6083 13.1 13 12 13ZM6 21C5.45 21 4.979 20.804 4.587 20.412C4.195 20.02 3.99934 19.5493 4 19V18.2C4 17.6333 4.146 17.1123 4.438 16.637C4.73 16.1617 5.11733 15.7993 5.6 15.55C6.63333 15.0333 7.68334 14.6457 8.75 14.387C9.81667 14.1283 10.9 13.9993 12 14C13.1 14 14.1833 14.1293 15.25 14.388C16.3167 14.6467 17.3667 15.034 18.4 15.55C18.8833 15.8 19.271 16.1627 19.563 16.638C19.855 17.1133 20.0007 17.634 20 18.2V19C20 19.55 19.804 20.021 19.412 20.413C19.02 20.805 18.5493 21.0007 18 21H6Z" fill="black"/>
</svg>
